<svg xmlns="http://www.w3.org/2000/svg" version="1.1" width="232" height="245">
<path d="M0 0 C76.56 0 153.12 0 232 0 C232 80.85 232 161.7 232 245 C155.44 245 78.88 245 0 245 C0 164.15 0 83.3 0 0 Z " fill="#0FBDFE" transform="translate(0,0)"/>
<path d="M0 0 C1.34237404 0.98783081 2.67709863 1.9862398 4 3 C5.3303125 3.86625 5.3303125 3.86625 6.6875 4.75 C13.53820581 11.4155516 16.09999527 18.76763916 16.234375 28.140625 C16.24210937 29.24664062 16.24210937 29.24664062 16.25 30.375 C16.270625 31.10460937 16.29125 31.83421875 16.3125 32.5859375 C16.34971429 37.79593804 15.33605249 41.34019004 13 46 C12.34 46 11.68 46 11 46 C10.7525 46.721875 10.505 47.44375 10.25 48.1875 C9 51 9 51 6.96875 52.96875 C3.99938448 57.54063025 4.32521404 61.96888442 4.25 67.3125 C4.20552734 68.85260742 4.20552734 68.85260742 4.16015625 70.42382812 C4.08967806 72.94929675 4.0368734 75.47385415 4 78 C0.52412744 77.28986051 -1.54306838 75.91803943 -4.36352539 73.76245117 C-11.54040735 68.42955038 -17.17344901 67.2364266 -26.01733398 67.16870117 C-38.11340083 67.06725896 -48.42330181 63.33007201 -57.1875 54.89453125 C-65.59480775 45.91540294 -68.45426189 37.96340798 -68.33984375 25.74609375 C-67.57244484 17.28706434 -64.18073963 10.07427072 -57.79296875 4.44921875 C-57.20128906 3.97097656 -56.60960938 3.49273437 -56 3 C-55.50113281 2.55269531 -55.00226563 2.10539062 -54.48828125 1.64453125 C-39.39376675 -10.71243906 -15.9024128 -10.30518198 0 0 Z " fill="#FCFDFC" transform="translate(173,37)"/>
<path d="M0 0 C6.88689742 5.69063439 12.82976222 11.92713968 13.70458984 21.125 C13.8452688 24.83445509 13.86458242 28.52632196 13.84375 32.23828125 C13.86373047 33.51703125 13.88371094 34.79578125 13.90429688 36.11328125 C13.90333008 37.94632813 13.90333008 37.94632813 13.90234375 39.81640625 C13.90419678 40.92918945 13.9060498 42.04197266 13.90795898 43.18847656 C13.40625 45.98828125 13.40625 45.98828125 11.91963196 47.64198303 C8.26275694 49.60079566 4.73544284 49.38160112 0.69042969 49.32885742 C-0.18797577 49.3292955 -1.06638123 49.32973358 -1.97140503 49.33018494 C-4.87178861 49.32809667 -7.77159253 49.30476373 -10.671875 49.28125 C-12.68397709 49.27565418 -14.69608328 49.27138402 -16.70819092 49.26838684 C-22.00190533 49.25693696 -27.29537248 49.22746841 -32.58898926 49.1942749 C-37.99158381 49.16357719 -43.39421835 49.14988213 -48.796875 49.13476562 C-59.39594192 49.10259897 -69.99482539 49.05140076 -80.59375 48.98828125 C-80.74417801 44.79326823 -80.85191494 40.59975916 -80.92333984 36.40283203 C-80.95316841 34.98100382 -80.99384869 33.55935387 -81.04638672 32.13818359 C-81.43546909 21.32779688 -80.12993878 12.23203009 -72.6472168 3.79296875 C-54.67504458 -13.56853402 -20.02353169 -14.08281521 0 0 Z " fill="#FCFDFC" transform="translate(92.59375,190.01171875)"/>
<path d="M0 0 C6.05857672 5.01821506 11.41422926 10.67954883 12.50170898 18.70043945 C12.49985596 19.99167725 12.49800293 21.28291504 12.49609375 22.61328125 C12.49754898 23.30890671 12.49900421 24.00453217 12.50050354 24.72123718 C12.49885585 26.17756379 12.4874223 27.63390989 12.46655273 29.09008789 C12.43734348 31.32447302 12.44601445 33.55651763 12.45898438 35.79101562 C12.45275339 37.21094905 12.44436747 38.63087502 12.43359375 40.05078125 C12.42384521 41.33637939 12.41409668 42.62197754 12.40405273 43.9465332 C12.27071533 44.95417725 12.13737793 45.96182129 12 47 C8.16230438 49.55846375 5.04383815 49.27375008 0.59716797 49.24291992 C-0.25997803 49.24481827 -1.11712402 49.24671661 -2.00024414 49.24867249 C-4.836193 49.25238027 -7.67188637 49.24167748 -10.5078125 49.23046875 C-12.47411061 49.22927702 -14.4404093 49.22882377 -16.40670776 49.2290802 C-20.52752241 49.22751542 -24.64825017 49.21922496 -28.76904297 49.20581055 C-34.06337886 49.18879842 -39.35761942 49.18499683 -44.65197945 49.18575573 C-48.71130288 49.18548446 -52.77060527 49.18001061 -56.82992172 49.17275429 C-58.78285437 49.16956229 -60.7357894 49.16759898 -62.68872452 49.16686058 C-65.41117712 49.16470389 -68.13352644 49.15597495 -70.85595703 49.14526367 C-71.67051361 49.14571686 -72.48507019 49.14617004 -73.3243103 49.14663696 C-78.88552437 49.11447563 -78.88552437 49.11447563 -80 48 C-80.26839885 43.72931162 -80.27144711 39.4524323 -80.29516602 35.17431641 C-80.31221216 33.03610603 -80.35604939 30.89951104 -80.40039062 28.76171875 C-80.51119757 19.1155075 -79.51684596 11.70413002 -72.875 4.3125 C-53.85489027 -13.05893214 -21.10371456 -14.59509231 0 0 Z " fill="#FDFDFC" transform="translate(207,190)"/>
<path d="M0 0 C-1.02911077 2.21654627 -2.08234225 4.10869177 -3.5625 6.0625 C-5.18688728 8.04181496 -5.18688728 8.04181496 -6 11 C-6.66 11 -7.32 11 -8 11 C-8.66 14.3 -9.32 17.6 -10 21 C-10.66 21 -11.32 21 -12 21 C-12.12763834 34.01911024 -9.42657028 44.21566388 -0.5 54.1875 C0.325 55.115625 1.15 56.04375 2 57 C1 60 1 60 -1.40625 61.53515625 C-2.4271875 62.03917969 -3.448125 62.54320313 -4.5 63.0625 C-5.5003125 63.56910156 -6.500625 64.07570313 -7.53125 64.59765625 C-14.20809393 67.2969659 -20.02737629 68.19066379 -27.19384766 67.71875 C-37.3675421 67.08127551 -43.42038766 68.78579192 -51.4453125 75.03125 C-54 77 -54 77 -56 77 C-56.07734375 75.06060547 -56.07734375 75.06060547 -56.15625 73.08203125 C-56.85089283 61.21712042 -58.69399711 53.48258292 -66 44 C-70.27403964 37.58894054 -69.66609789 28.8383594 -68.64453125 21.41796875 C-66.26419334 11.27357566 -58.19780386 3.99564774 -49.7109375 -1.52734375 C-34.18194807 -9.96312043 -14.94642436 -9.53620128 0 0 Z " fill="#FCFDFC" transform="translate(112,38)"/>
<path d="M0 0 C5.78280532 3.78106502 8.9754043 8.45899852 11 15 C11.88745847 22.53502477 11.81078486 29.33112649 8 36 C7.34 36 6.68 36 6 36 C5.79375 36.556875 5.5875 37.11375 5.375 37.6875 C2.36206679 42.75470586 -2.31400291 45.67371239 -7.80078125 47.4921875 C-15.58439332 49.28946915 -22.19436236 48.12667889 -29 44 C-34.12988259 39.80282333 -38.8145357 33.66355721 -40 27 C-40.41913173 20.635046 -40.14025773 15.01947487 -38 9 C-37.34 9 -36.68 9 -36 9 C-35.89816406 8.40316406 -35.79632813 7.80632812 -35.69140625 7.19140625 C-34.29324203 2.75993661 -30.05535315 0.16397894 -26.14453125 -2.05078125 C-17.26160992 -5.91530991 -8.19846386 -4.86132006 0 0 Z " fill="#FAFCFC" transform="translate(188,127)"/>
<path d="M0 0 C6.03825939 4.81942555 9.06418994 9.26775121 10 17 C10.11363411 19.37310315 10.17467177 21.74921241 10.1875 24.125 C10.20167969 25.32382813 10.21585938 26.52265625 10.23046875 27.7578125 C10.01401445 30.80284753 9.60279273 32.45327005 8 35 C7.34 35 6.68 35 6 35 C5.773125 35.7425 5.54625 36.485 5.3125 37.25 C2.57320005 42.98948561 -2.68638775 45.10000905 -8.3828125 47.23828125 C-15.25744204 49.23910627 -21.72518488 48.40632821 -28 45 C-33.18573661 41.50756514 -36.34218497 37.63456786 -39 32 C-39 31.01 -39 30.02 -39 29 C-39.66 29 -40.32 29 -41 29 C-41.74592995 12.90034534 -41.74592995 12.90034534 -37 7 C-34.4375 4.25 -34.4375 4.25 -32 2 C-31.29037109 1.24009766 -31.29037109 1.24009766 -30.56640625 0.46484375 C-22.43252644 -7.14165234 -8.79315127 -5.12933824 0 0 Z " fill="#FAFCFC" transform="translate(74,127)"/>
<path d="M0 0 C1.32 0.66 2.64 1.32 4 2 C3.73445313 2.59167969 3.46890625 3.18335938 3.1953125 3.79296875 C2.66550781 4.97826172 2.66550781 4.97826172 2.125 6.1875 C1.77695313 6.96480469 1.42890625 7.74210937 1.0703125 8.54296875 C0.71710938 9.35378906 0.36390625 10.16460937 0 11 C-0.556875 12.06734375 -0.556875 12.06734375 -1.125 13.15625 C-2.46564095 17.5133331 -2.20820036 21.78448033 -2.125 26.3125 C-2.11146484 27.70952148 -2.11146484 27.70952148 -2.09765625 29.13476562 C-2.07418263 31.4234436 -2.04134729 33.71158672 -2 36 C-3.485 36.495 -3.485 36.495 -5 37 C-7.79441201 32.29130574 -8.39036978 28.49324646 -8.1875 23.125 C-8.17396484 22.43664062 -8.16042969 21.74828125 -8.14648438 21.0390625 C-8.1114837 19.35902999 -8.05768954 17.6794065 -8 16 C-7.34 16 -6.68 16 -6 16 C-6.04125 15.0925 -6.0825 14.185 -6.125 13.25 C-6.00468444 10.1217954 -5.6085292 8.61385994 -4 6 C-3.34 6 -2.68 6 -2 6 C-1.855625 5.195625 -1.71125 4.39125 -1.5625 3.5625 C-1 1 -1 1 0 0 Z " fill="#3CC3FE" transform="translate(108,43)"/>
<path d="M0 0 C0.96088383 2.88265149 1.11670941 4.67662271 1.09765625 7.66796875 C1.09282227 9.00698242 1.09282227 9.00698242 1.08789062 10.37304688 C1.07951172 11.30181641 1.07113281 12.23058594 1.0625 13.1875 C1.05798828 14.12787109 1.05347656 15.06824219 1.04882812 16.03710938 C1.03704626 18.35813712 1.02059558 20.67903644 1 23 C0.01 23.33 -0.98 23.66 -2 24 C-4.79441201 19.29130574 -5.39036978 15.49324646 -5.1875 10.125 C-5.17396484 9.43664062 -5.16042969 8.74828125 -5.14648438 8.0390625 C-5.1114837 6.35902999 -5.05768954 4.6794065 -5 3 C-4.67 3 -4.34 3 -4 3 C-4 6.96 -4 10.92 -4 15 C-3.34 15 -2.68 15 -2 15 C-2 10.71 -2 6.42 -2 2 C-1.34 2 -0.68 2 0 2 C0 1.34 0 0.68 0 0 Z " fill="#4BC7FE" transform="translate(105,56)"/>
<path d="M0 0 C2.74146784 2.74146784 4.21293716 5.54912004 6 9 C5.67 9.66 5.34 10.32 5 11 C3.68 11 2.36 11 1 11 C-0.32 8.36 -1.64 5.72 -3 3 C-2.01 2.01 -1.02 1.02 0 0 Z " fill="#25BEFE" transform="translate(106,77)"/>
<path d="M0 0 C0.33 0.99 0.66 1.98 1 3 C0.01 4.485 0.01 4.485 -1 6 C-1.20429887 8.44923363 -1.20429887 8.44923363 -1.0625 11.0625 C-0.90233838 15.80467675 -0.90233838 15.80467675 -2 18 C-2.66 18 -3.32 18 -4 18 C-4.05441656 16.10448978 -4.09298035 14.2085208 -4.125 12.3125 C-4.14820312 11.25675781 -4.17140625 10.20101562 -4.1953125 9.11328125 C-3.99653524 5.94477177 -3.44874543 3.81137662 -2 1 C-1.34 0.67 -0.68 0.34 0 0 Z " fill="#07B5FE" transform="translate(105,53)"/>
<path d="M0 0 C0.99 0 1.98 0 3 0 C2.69320312 0.53109375 2.38640625 1.0621875 2.0703125 1.609375 C0.78447087 4.48140083 0.34791005 7.14230539 -0.125 10.25 C-0.29257813 11.32765625 -0.46015625 12.4053125 -0.6328125 13.515625 C-0.75398437 14.33546875 -0.87515625 15.1553125 -1 16 C-1.33 16 -1.66 16 -2 16 C-2.05402274 13.89611431 -2.09280256 11.79183286 -2.125 9.6875 C-2.14820313 8.51574219 -2.17140625 7.34398438 -2.1953125 6.13671875 C-2 3 -2 3 0 0 Z " fill="#33C3FE" transform="translate(179,90)"/>
<path d="M0 0 C1.32 0.66 2.64 1.32 4 2 C3.01 3.485 3.01 3.485 2 5 C0.68 5 -0.64 5 -2 5 C-1.34 3.35 -0.68 1.7 0 0 Z " fill="#2AC0FE" transform="translate(108,43)"/>
<path d="M0 0 C0 0.66 0 1.32 0 2 C-3.3 1.67 -6.6 1.34 -10 1 C-10 0.67 -10 0.34 -10 0 C-6.30458414 -0.95024979 -3.69541586 -0.95024979 0 0 Z " fill="#33C2FE" transform="translate(78,181)"/>
<path d="M0 0 C2.89932357 2.39509338 3.50168276 4.31245243 4 8 C2.35 6.68 0.7 5.36 -1 4 C-0.67 2.68 -0.34 1.36 0 0 Z " fill="#0BB7FE" transform="translate(110,87)"/>
</svg>