<svg xmlns="http://www.w3.org/2000/svg" version="1.1" width="764" height="343">

<path d="M0 0 C0.81095582 -0.00367669 1.62191163 -0.00735338 2.45744187 -0.01114148 C5.17858928 -0.02216637 7.89969848 -0.0260202 10.62086487 -0.02983093 C12.57078167 -0.03609668 14.52069727 -0.04274358 16.47061157 -0.04974365 C22.87949289 -0.07078004 29.28837443 -0.08114831 35.69728088 -0.09111023 C37.90598628 -0.09515849 40.11469154 -0.09927543 42.32339668 -0.10346031 C52.70472465 -0.12251411 63.08604552 -0.13674257 73.46738762 -0.14507228 C85.4350784 -0.15483408 97.4025837 -0.18112527 109.37020916 -0.22157317 C118.62901666 -0.25178715 127.88777118 -0.26654632 137.14662701 -0.26985329 C142.67192602 -0.2721985 148.19702693 -0.28108949 153.72227287 -0.30631447 C158.927002 -0.32969143 164.13140397 -0.33378981 169.3361721 -0.32355309 C171.23838137 -0.32305989 173.14060725 -0.32931604 175.04276657 -0.34310913 C193.43378668 -0.46891998 207.99934532 2.98048913 221.91212463 15.88545227 C231.08799552 25.76059956 236.12311015 37.99385623 236.15412903 51.38056946 C236.15858571 52.45740226 236.15858571 52.45740226 236.16313243 53.55598927 C236.17178834 55.95618675 236.17332507 58.35633418 236.17481995 60.75654602 C236.17945048 62.48001206 236.18447546 64.20347708 236.18986511 65.92694092 C236.20297225 70.60712013 236.2094313 75.28728501 236.21387577 79.96747971 C236.21681047 82.8955123 236.22091613 85.82354102 236.22537994 88.75157166 C236.2390532 97.92406731 236.24871953 107.09655404 236.25258183 116.26905918 C236.25705606 126.83533015 236.27457513 137.40147134 236.30358243 147.96770287 C236.32525479 156.1479843 236.33528915 164.32822938 236.33662295 172.5085392 C236.33766742 177.38768635 236.34349802 182.26671148 236.36144257 187.14582825 C236.37801851 191.74234405 236.38003291 196.33864738 236.37130356 200.93518257 C236.37053813 202.61324193 236.37480986 204.29131316 236.38476181 205.96934319 C236.48547276 224.02381101 233.49324956 241.46647375 220.44337463 255.04951477 C207.73798948 266.01863346 193.6409927 271.24104433 176.79469299 271.16792297 C175.44993141 271.16342888 175.44993141 271.16342888 174.07800293 271.15884399 C173.39677872 271.15499191 172.7155545 271.15113983 172.01368713 271.14717102 C172.02416077 272.43929504 172.0346344 273.73141907 172.04542542 275.06269836 C172.08155432 279.84473412 172.10456164 284.62675775 172.12355042 289.40888977 C172.13362425 291.48085049 172.14728379 293.55279695 172.16456604 295.62471008 C172.18875377 298.59837866 172.20015622 301.57185972 172.20899963 304.54560852 C172.2193222 305.47585846 172.22964478 306.4061084 172.24028015 307.36454773 C172.24043121 308.225289 172.24058228 309.08603027 172.24073792 309.97285461 C172.24517914 310.73230377 172.24962036 311.49175293 172.25419617 312.2742157 C172.01368713 314.14717102 172.01368713 314.14717102 170.01368713 316.14717102 C165.19231025 317.0704134 162.65982135 316.1835094 158.59571838 313.51435852 C157.14008484 312.56073425 157.14008484 312.56073425 155.65504456 311.58784485 C154.44022419 310.77583254 153.22655692 309.96209396 152.01368713 309.14717102 C150.89868332 308.39903641 150.89868332 308.39903641 149.76115417 307.63578796 C142.41321822 302.69783286 135.08600222 297.72927116 127.76173401 292.75630188 C124.94369521 290.84382049 122.12334629 288.93478351 119.30274963 287.02607727 C118.04429733 286.16944237 118.04429733 286.16944237 116.76042175 285.29550171 C115.07925273 284.15881655 113.38630683 283.03937834 111.682724 281.93656921 C109.01368713 280.14717102 109.01368713 280.14717102 106.25993347 277.96934509 C95.97873284 270.4430319 86.1370192 271.09265136 73.83399963 271.28779602 C71.69133113 271.29044056 69.54865399 271.28896056 67.4059906 271.28358459 C61.79224792 271.27783659 56.17977856 271.31606196 50.56629944 271.3674469 C41.59242798 271.44526797 32.61865396 271.4688925 23.64448166 271.46735382 C20.53629291 271.47510331 17.4292831 271.50981883 14.32133484 271.54762268 C-5.5216141 271.67713042 -21.68353035 268.01454656 -36.47850037 253.83076477 C-49.22247315 240.19352286 -51.7543638 223.87467193 -51.60154724 205.98188782 C-51.60505844 204.22399359 -51.6107282 202.46610259 -51.61836243 200.70822144 C-51.63247133 195.98522423 -51.61569012 191.26281896 -51.59207726 186.53987861 C-51.57180115 181.57229445 -51.57785618 176.60473088 -51.58018494 171.63711548 C-51.58013157 163.304676 -51.56049185 154.97246483 -51.52830505 146.64009094 C-51.4913607 137.02984333 -51.48264006 127.41989369 -51.48960257 117.80958432 C-51.49592215 108.52653749 -51.48513023 99.24359193 -51.46563721 89.96056557 C-51.45749883 86.0258368 -51.45474702 82.09116004 -51.45632935 78.15642357 C-51.4572127 73.52113808 -51.44287161 68.88613275 -51.41710281 64.25092125 C-51.40998448 62.55751912 -51.40783631 60.86408708 -51.41122055 59.17067337 C-51.43654914 43.50076345 -49.25503909 28.54943267 -38.04295349 16.64546204 C-30.16349809 8.74316374 -22.56441052 4.49799698 -11.98631287 1.14717102 C-11.4391458 0.96877088 -10.89197874 0.79037073 -10.32823086 0.60656452 C-6.89711828 -0.06648672 -3.48255824 -0.0008474 0 0 Z " fill="#0EBCFE" transform="translate(81.98631286621094,14.852828979492188)"/>
<path d="M0 0 C2.58988588 1.95164516 4.7311931 4.05352663 6.91796875 6.4453125 C7.57796875 6.4453125 8.23796875 6.4453125 8.91796875 6.4453125 C9.22734375 5.3109375 9.53671875 4.1765625 9.85546875 3.0078125 C10.91796875 -0.5546875 10.91796875 -0.5546875 11.91796875 -1.5546875 C14.72491558 -1.73492303 17.48383702 -1.83276187 20.29296875 -1.8671875 C21.46472656 -1.91069336 21.46472656 -1.91069336 22.66015625 -1.95507812 C28.39322663 -2.01888798 28.39322663 -2.01888798 30.64323425 -0.0284729 C32.42436503 3.42803927 32.32871206 6.65403874 32.2902832 10.45166016 C32.29393387 11.25548126 32.29758453 12.05930237 32.30134583 12.88748169 C32.3094507 15.54499452 32.2958347 18.20189709 32.28125 20.859375 C32.28073108 22.71300252 32.28125002 24.56663059 32.28276062 26.42025757 C32.28267088 30.30906371 32.27224335 34.19766265 32.25415039 38.08642578 C32.23155818 43.04921566 32.23090181 48.01170031 32.23766804 52.97452736 C32.2410265 56.80604723 32.23434117 60.63749873 32.2245388 64.46900558 C32.22071166 66.29727189 32.21952818 68.12554584 32.22112465 69.95381546 C32.22378868 88.21439852 32.22378868 88.21439852 29.91796875 96.4453125 C29.66917969 97.3734375 29.42039062 98.3015625 29.1640625 99.2578125 C25.55846383 109.0120891 18.98901109 116.12852016 9.5703125 120.5078125 C-3.45775424 125.11272563 -20.80092353 126.07682979 -33.7109375 120.69921875 C-41.55722648 116.54986329 -48.06691764 110.96612959 -50.77734375 102.1953125 C-51.14453125 100.0703125 -51.14453125 100.0703125 -51.08203125 96.4453125 C-49.55949898 94.36776847 -48.61196709 93.56984645 -46.0925293 92.9777832 C-30.77711797 92.25116994 -30.77711797 92.25116994 -26.63671875 95.16796875 C-25.14453125 97.3203125 -25.14453125 97.3203125 -24.1171875 99.5 C-22.76941549 102.0327942 -21.78421978 102.52591502 -19.08203125 103.4453125 C-12.00569424 104.33453474 -5.5405051 104.37733522 0.33203125 100.00390625 C6.30447639 94.1344343 6.95731901 87.12952994 7.48046875 79.1328125 C7.56425781 77.87855469 7.64804687 76.62429687 7.734375 75.33203125 C7.79496094 74.37941406 7.85554687 73.42679687 7.91796875 72.4453125 C7.25796875 72.4453125 6.59796875 72.4453125 5.91796875 72.4453125 C5.70785156 73.03957031 5.49773438 73.63382812 5.28125 74.24609375 C3.40553528 77.27196018 1.29326189 78.10377239 -1.89453125 79.6328125 C-2.93222656 80.14199219 -3.96992187 80.65117187 -5.0390625 81.17578125 C-14.27051677 85.02715819 -23.95135295 84.1635526 -33.08203125 80.4453125 C-43.02922631 75.69656115 -48.19446659 68.25723276 -52.13671875 58.1796875 C-56.15453847 46.55789492 -56.04429549 30.21235816 -51.33984375 18.87890625 C-46.32859791 9.18323495 -39.78753842 0.88477326 -29.18359375 -2.890625 C-19.48033076 -4.96814982 -8.69212873 -5.23622213 0 0 Z " fill="#0EBCFE" transform="translate(707.08203125,78.5546875)"/>
<path d="M0 0 C1.64645508 -0.0299707 1.64645508 -0.0299707 3.32617188 -0.06054688 C4.38255859 -0.05990234 5.43894531 -0.05925781 6.52734375 -0.05859375 C7.492771 -0.06044678 8.45819824 -0.0622998 9.45288086 -0.06420898 C12.85318748 0.58951261 13.82267292 1.83273344 16.0625 4.4375 C17.26242065 6.89213562 17.26242065 6.89213562 18.25732422 9.6706543 C18.63807098 10.71662277 19.01881775 11.76259125 19.41110229 12.84025574 C19.80911041 13.96933853 20.20711853 15.09842133 20.6171875 16.26171875 C21.04121857 17.43652298 21.46524963 18.61132721 21.90213013 19.82173157 C23.02912712 22.95075547 24.1462096 26.08296487 25.25866699 29.21716309 C26.37114186 32.34373558 27.49685582 35.46553234 28.62109375 38.58789062 C30.74136003 44.4849149 32.84636437 50.38721406 34.94372559 56.29241943 C35.96834058 59.17280057 36.99900623 62.05091963 38.03222656 64.92822266 C38.58672191 66.47944452 39.14109552 68.03070991 39.6953125 69.58203125 C39.9426413 70.26738449 40.18997009 70.95273773 40.4447937 71.65885925 C42.0625 76.20968025 42.0625 76.20968025 42.0625 78.4375 C44.63841764 77.14954118 44.66640232 76.29730518 45.59960938 73.62158203 C46.03197906 72.39968674 46.03197906 72.39968674 46.4730835 71.15310669 C46.78102844 70.25953461 47.08897339 69.36596252 47.40625 68.4453125 C47.73175842 67.51991669 48.05726685 66.59452087 48.39263916 65.64108276 C49.0919527 63.65096354 49.78806281 61.65971638 50.48132324 59.66748047 C51.92084317 55.53339118 53.37814412 51.40565372 54.83465576 47.27752686 C55.91416898 44.2171587 56.9913911 41.15599108 58.06835938 38.09472656 C60.61529929 30.86285808 63.18763474 23.64150228 65.8125 16.4375 C66.19341797 15.36773926 66.57433594 14.29797852 66.96679688 13.19580078 C70.75800587 2.85567245 70.75800587 2.85567245 74.0625 0.4375 C78.26658602 -0.23603502 82.3777125 -0.16766638 86.625 -0.0625 C87.77419922 -0.06507813 88.92339844 -0.06765625 90.10742188 -0.0703125 C98.52388767 0.0282987 98.52388767 0.0282987 100.69986248 1.68145752 C102.43750229 3.92076862 102.43730886 5.13845741 102.4367218 7.95410156 C102.44373611 8.87944702 102.45075043 9.80479248 102.45797729 10.75817871 C102.45033356 11.77126099 102.44268982 12.78434326 102.43481445 13.828125 C102.43846512 14.89663696 102.44211578 15.96514893 102.44587708 17.06604004 C102.45399928 20.60668714 102.44035821 24.14687899 102.42578125 27.6875 C102.42526285 30.1422526 102.42577978 32.59700562 102.42729187 35.05175781 C102.42720207 40.19993272 102.41675688 45.34795127 102.39868164 50.49609375 C102.37599437 57.10409104 102.37544961 63.71185974 102.38219929 70.31988525 C102.38553646 75.38983196 102.3789139 80.4597263 102.36907005 85.52966309 C102.36521343 87.96659064 102.36407174 90.40352401 102.3656559 92.8404541 C102.36602564 96.24270786 102.35343173 99.64466559 102.3371582 103.046875 C102.33963562 104.05995728 102.34211304 105.07303955 102.34466553 106.11682129 C102.33758072 107.04216675 102.33049591 107.96751221 102.32319641 108.92089844 C102.32011711 110.12767242 102.32011711 110.12767242 102.31697559 111.35882568 C102.0625 113.4375 102.0625 113.4375 100.0625 116.4375 C98.21484375 116.80981445 98.21484375 116.80981445 96 116.80078125 C94.80503906 116.79981445 94.80503906 116.79981445 93.5859375 116.79882812 C92.33683594 116.7746582 92.33683594 116.7746582 91.0625 116.75 C90.22976563 116.75322266 89.39703125 116.75644531 88.5390625 116.75976562 C82.32950255 116.70450255 82.32950255 116.70450255 80.0625 114.4375 C79.7840271 111.38766479 79.7840271 111.38766479 79.74365234 107.41748047 C79.73360672 106.69542419 79.7235611 105.97336792 79.71321106 105.22943115 C79.68226928 102.83785819 79.66531374 100.44639771 79.6484375 98.0546875 C79.62973466 96.39843775 79.61016192 94.74219761 79.5897522 93.08596802 C79.53833145 88.72289691 79.49875914 84.35979488 79.46160889 79.99658203 C79.42163138 75.54581998 79.3705106 71.09518768 79.3203125 66.64453125 C79.22343557 57.90894266 79.13906868 49.17329008 79.0625 40.4375 C71.21082635 59.81139772 71.21082635 59.81139772 63.6953125 79.31640625 C63.26476562 80.46044922 62.83421875 81.60449219 62.390625 82.78320312 C61.55361197 85.02112596 60.72899294 87.26370734 59.9140625 89.50976562 C55.85898122 100.17289856 55.85898122 100.17289856 50.0625 103.4375 C46.58984375 104.06640625 46.58984375 104.06640625 43 104 C41.81277344 104.00128906 40.62554687 104.00257813 39.40234375 104.00390625 C35.38455812 103.3225274 33.98938836 102.23921399 31.0625 99.4375 C29.46020508 96.44262695 29.46020508 96.44262695 28.08203125 92.92578125 C27.82427414 92.28045944 27.56651703 91.63513763 27.3009491 90.97026062 C26.47844784 88.90200225 25.67632334 86.82654237 24.875 84.75 C24.35747837 83.43761449 23.83860561 82.12576095 23.31835938 80.81445312 C22.21367544 78.02441319 21.11746838 75.23122254 20.02587891 72.43603516 C17.59587265 66.22934786 15.11459931 60.04316139 12.63671875 53.85546875 C12.186418 52.73086746 11.73611725 51.60626617 11.27217102 50.44758606 C10.20267142 47.77740054 9.13280459 45.10736294 8.0625 42.4375 C8.05441315 43.33508026 8.04632629 44.23266052 8.03799438 45.15744019 C7.96014982 53.60400945 7.87289021 62.05041711 7.77497292 70.49677849 C7.72496332 74.83945376 7.67863391 79.18210414 7.640625 83.52490234 C7.60383081 87.713609 7.5574873 91.9021098 7.50443649 96.09064102 C7.48586122 97.6910352 7.47076491 99.29147357 7.45915604 100.89193344 C7.44234676 103.12852954 7.41332587 105.36465091 7.38134766 107.60107422 C7.36802399 108.87570526 7.35470032 110.1503363 7.3409729 111.46359253 C7.0625 114.4375 7.0625 114.4375 5.0625 116.4375 C2.08282424 116.88043542 -0.92861866 116.76164428 -3.9375 116.75 C-4.77023437 116.76611328 -5.60296875 116.78222656 -6.4609375 116.79882812 C-7.65589844 116.79979492 -7.65589844 116.79979492 -8.875 116.80078125 C-9.60589844 116.80376221 -10.33679688 116.80674316 -11.08984375 116.80981445 C-12.9375 116.4375 -12.9375 116.4375 -14.9375 113.4375 C-15.19197559 111.35882568 -15.19197559 111.35882568 -15.19819641 108.92089844 C-15.20528122 107.99555298 -15.21236603 107.07020752 -15.21966553 106.11682129 C-15.21718811 105.10373901 -15.21471069 104.09065674 -15.2121582 103.046875 C-15.21726913 101.97836304 -15.22238007 100.90985107 -15.22764587 99.80895996 C-15.24157378 96.26841672 -15.24058284 92.72806741 -15.23828125 89.1875 C-15.24216608 86.73274665 -15.24650031 84.27799398 -15.25126648 81.82324219 C-15.25873534 76.67510805 -15.25843232 71.52704249 -15.25317383 66.37890625 C-15.2473748 59.77086702 -15.2643177 53.16310767 -15.2875185 46.55511475 C-15.30222513 41.48517202 -15.30313179 36.41529719 -15.30000877 31.34533691 C-15.30052342 28.90840093 -15.30578776 26.47146128 -15.31582069 24.0345459 C-15.32810972 20.63221856 -15.32143877 17.23044301 -15.30981445 13.828125 C-15.31745819 12.81504272 -15.32510193 11.80196045 -15.33297729 10.75817871 C-15.32596298 9.83283325 -15.31894867 8.90748779 -15.3117218 7.95410156 C-15.31188954 7.14958557 -15.31205729 6.34506958 -15.31223011 5.51617432 C-13.98777742 -1.83072874 -5.70111381 -0.03669529 0 0 Z " fill="#0CBBFE" transform="translate(385.9375,195.5625)"/>
<path d="M0 0 C0.66773438 0.54398438 1.33546875 1.08796875 2.0234375 1.6484375 C2.64992188 2.15117187 3.27640625 2.65390625 3.921875 3.171875 C12.07048576 10.46648289 16.57642322 21.37429596 17.23828125 32.14453125 C17.49015233 41.98765292 17.49015233 41.98765292 15.8433075 44.31929016 C13.33162628 46.15370384 11.63644996 46.00987354 8.54223633 45.98901367 C6.86083305 45.98867378 6.86083305 45.98867378 5.14546204 45.98832703 C3.93601425 45.97284317 2.72656647 45.95735931 1.48046875 45.94140625 C0.24173508 45.93716141 -0.9969986 45.93291656 -2.27326965 45.92854309 C-5.56305251 45.91458483 -8.85239453 45.88763963 -12.14202881 45.85443115 C-15.50022996 45.82371683 -18.85849568 45.81003489 -22.21679688 45.79492188 C-28.80355824 45.76181109 -35.3900243 45.71158007 -41.9765625 45.6484375 C-41.69611191 47.39983825 -41.40496137 49.1495276 -41.109375 50.8984375 C-40.86791748 52.36023438 -40.86791748 52.36023438 -40.62158203 53.8515625 C-39.68047381 57.93231032 -38.11066463 60.86345054 -34.9765625 63.6484375 C-30.10381955 66.5595623 -24.56992808 67.61505796 -18.9765625 66.6484375 C-14.36487151 65.1340232 -11.62486049 63.57941678 -8.80859375 59.53515625 C-7.22930251 57.56984278 -6.40076564 56.75968723 -3.93969727 56.11425781 C-1.55064189 55.94975961 0.75655981 55.97651773 3.1484375 56.0859375 C3.95925781 56.08787109 4.77007813 56.08980469 5.60546875 56.09179688 C11.47157256 56.22269341 11.47157256 56.22269341 13.78076172 58.00415039 C15.0234375 59.6484375 15.0234375 59.6484375 14.9609375 62.4609375 C12.55154094 70.65288581 6.01075002 76.68395104 -1.2109375 80.9765625 C-13.99697454 87.05219712 -28.70900272 87.52635013 -42.00390625 82.90625 C-52.31196358 78.54462785 -59.43229265 71.75152301 -63.8515625 61.4609375 C-68.99132316 48.47538325 -69.1255139 31.43487365 -64.23046875 18.3359375 C-59.27156155 7.70750089 -51.18177279 -1.22561298 -39.9765625 -5.3515625 C-26.7640435 -9.67295029 -11.29840455 -8.36163514 0 0 Z " fill="#0DBBFE" transform="translate(726.9765625,229.3515625)"/>
<path d="M0 0 C7.07472974 3.78067568 12.10261462 10.07152792 14.56147766 17.75436401 C15.12375582 20.63374313 15.13529402 23.36270314 15.14526367 26.29736328 C15.15164352 27.5719339 15.15802338 28.84650452 15.16459656 30.15969849 C15.16612477 31.54656944 15.16723898 32.9334409 15.16796875 34.3203125 C15.1711826 35.74470046 15.17454677 37.16908808 15.17805481 38.59347534 C15.18403474 41.5742062 15.18589572 44.5549081 15.18530273 47.53564453 C15.18520082 51.3602706 15.19888858 55.18471226 15.21607494 59.00929451 C15.22717242 61.94832214 15.22922269 64.88730473 15.22869301 67.82635117 C15.22987516 69.23699457 15.23431007 70.64763907 15.24202538 72.05826187 C15.25178554 74.02595899 15.24769331 75.99371025 15.24291992 77.96142578 C15.24434494 79.08187286 15.24576996 80.20231995 15.24723816 81.35671997 C15 84 15 84 13 86 C10.13837978 86.27882453 7.42629639 86.41621662 4.5625 86.4375 C3.78583984 86.47037109 3.00917969 86.50324219 2.20898438 86.53710938 C-0.05859375 86.55859375 -0.05859375 86.55859375 -4 86 C-5.97265625 83.59765625 -5.97265625 83.59765625 -7 81 C-7.33 80.34 -7.66 79.68 -8 79 C-8.4125 79.39832031 -8.825 79.79664063 -9.25 80.20703125 C-9.8275 80.73683594 -10.405 81.26664062 -11 81.8125 C-11.556875 82.33457031 -12.11375 82.85664063 -12.6875 83.39453125 C-19.06346289 87.82108657 -25.33408512 88.52644449 -32.875 88.4375 C-33.75615479 88.43137695 -34.63730957 88.42525391 -35.54516602 88.41894531 C-42.01431069 88.26330752 -47.38877282 87.41449143 -53 84 C-53.928125 83.46375 -54.85625 82.9275 -55.8125 82.375 C-62.39193357 75.23161498 -63.78591045 68.06910213 -63.41015625 58.4921875 C-62.50998183 50.82784532 -59.21878998 46.70773247 -53.5859375 41.640625 C-45.46237094 36.48670059 -36.55071007 34.95461587 -27.1875 33.4375 C-24.80441694 33.04991322 -22.42280879 32.65311932 -20.04296875 32.24609375 C-18.48098755 31.99363892 -18.48098755 31.99363892 -16.88745117 31.73608398 C-13.78448838 30.94506066 -11.59768534 29.86019815 -9 28 C-8.36266555 26.0634195 -8.36266555 26.0634195 -8.625 24 C-8.67527344 22.9790625 -8.67527344 22.9790625 -8.7265625 21.9375 C-8.97052454 19.78750671 -8.97052454 19.78750671 -10 17 C-15.51856617 14.1661417 -21.95820411 14.34398731 -28 15 C-32.96269142 16.61069809 -35.63341092 19.39137915 -38 24 C-41.00286929 25.50143464 -44.0839496 25.2250678 -47.375 25.25 C-48.04789063 25.270625 -48.72078125 25.29125 -49.4140625 25.3125 C-53.58567794 25.34534737 -55.97577629 24.94667952 -59 22 C-58.40444665 14.55558312 -55.68713223 10.41884272 -50.375 5.375 C-46.02360075 1.68488281 -41.37341046 -0.22477026 -36 -2 C-25.95431477 -5.34856174 -9.54016485 -4.48848543 0 0 Z " fill="#0CBBFE" transform="translate(568,226)"/>
<path d="M0 0 C6.7613075 5.70644185 9.51376403 12.4601817 10.28300476 21.22434998 C10.3945286 24.8793322 10.41592036 28.52304373 10.3984375 32.1796875 C10.40046334 33.52344927 10.403379 34.86720997 10.40713501 36.21096802 C10.41152535 39.00631332 10.40522879 41.80136844 10.39111328 44.59667969 C10.37392269 48.1744709 10.38394462 51.75159169 10.40183067 55.32935905 C10.41267337 58.09521541 10.40922177 60.86091268 10.4014473 63.62677383 C10.39848544 65.58548676 10.40756355 67.54420597 10.4168396 69.50289917 C10.40265488 71.28592941 10.40265488 71.28592941 10.38818359 73.10498047 C10.38579681 74.14959442 10.38341003 75.19420837 10.38095093 76.27047729 C9.94329257 79.40631015 9.249414 80.79041443 7 83 C4.33448124 83.38121721 2.15157379 83.51578456 -0.5 83.4375 C-1.17675781 83.44458984 -1.85351562 83.45167969 -2.55078125 83.45898438 C-5.46566485 83.42161407 -7.50695059 83.34803488 -9.92578125 81.640625 C-11.32989817 79.49615552 -11.65961045 77.51888265 -12 75 C-12.66 75 -13.32 75 -14 75 C-14.2784375 75.86625 -14.2784375 75.86625 -14.5625 76.75 C-17.41742249 81.21857432 -22.2916991 82.98594483 -27.25 84.25 C-37.71573705 86.21897765 -47.82900009 85.26015089 -57.3125 80.25 C-63.55703565 75.02201667 -67.3675363 70.24611999 -68.37109375 61.921875 C-68.53273736 54.20101543 -67.71403046 48.28537394 -63 42 C-53.81999531 32.9352255 -42.34548592 31.8400903 -30.13867188 29.89453125 C-28.92630859 29.69214844 -27.71394531 29.48976562 -26.46484375 29.28125 C-25.367771 29.10658203 -24.27069824 28.93191406 -23.14038086 28.75195312 C-19.76404695 27.94350187 -17.03746816 26.66142338 -14 25 C-13.91868537 23.56344146 -13.86066441 22.1255517 -13.8125 20.6875 C-13.77769531 19.88699219 -13.74289062 19.08648437 -13.70703125 18.26171875 C-13.81832484 15.95068215 -13.81832484 15.95068215 -15.28125 14.28515625 C-19.29629257 11.28299942 -24.32629564 10.7363655 -29.1875 11.1875 C-34.51309457 12.32246278 -37.00654118 13.54759639 -40.10546875 18.078125 C-41.67481459 19.98874634 -42.5464364 20.87517484 -44.94897461 21.53637695 C-47.20177602 21.69862362 -49.36937973 21.67220167 -51.625 21.5625 C-52.388125 21.56056641 -53.15125 21.55863281 -53.9375 21.55664062 C-57.05178827 21.48288117 -59.39997326 21.40736825 -62.01953125 19.62890625 C-63 18 -63 18 -63.0625 15.375 C-60.64284526 7.68903789 -56.21970167 2.37941886 -49.3671875 -1.78515625 C-34.17976149 -9.57936333 -14.40621497 -9.49940014 0 0 Z " fill="#0DBBFE" transform="translate(533,81)"/>
<path d="M0 0 C7.0277261 5.25859366 11.81294926 12.24018345 14.25 20.68359375 C15.90606698 33.56895702 12.42032894 42.35686576 4.73828125 52.45703125 C2.48262745 55.83163142 2.13346187 59.01435629 1.93359375 63.01171875 C1.89169922 63.8109375 1.84980469 64.61015625 1.80664062 65.43359375 C1.76732422 66.25859375 1.72800781 67.08359375 1.6875 67.93359375 C1.62272461 69.19429687 1.62272461 69.19429687 1.55664062 70.48046875 C1.45091457 72.54800046 1.34998705 74.61577656 1.25 76.68359375 C-2.4503815 75.43873343 -5.16532711 73.66896415 -8.25292969 71.30712891 C-16.10661845 65.4862935 -22.05827837 65.04201888 -31.61328125 65.54296875 C-41.49004305 66.0495833 -51.23947535 61.10446664 -58.82421875 55.01953125 C-66.74161142 47.49714949 -70.72698632 39.33572861 -71.125 28.37109375 C-70.92550745 18.12656442 -66.98538794 9.91898169 -59.75 2.68359375 C-41.79347325 -11.64764053 -19.16982701 -12.31907153 0 0 Z " fill="#FDFDFC" transform="translate(233.75,68.31640625)"/>
<path d="M0 0 C1.38034424 0.00845947 1.38034424 0.00845947 2.78857422 0.01708984 C16.60061167 0.26195833 28.7774613 3.48860905 39.125 13.0625 C47.08889527 21.91589774 48.53818748 30.0325498 48.3125 41.75 C48.32345703 43.01521484 48.33441406 44.28042969 48.34570312 45.58398438 C48.2724865 54.73606301 48.2724865 54.73606301 46.25466919 56.9622345 C42.63268513 58.91484371 39.15369129 58.71423495 35.1418457 58.66894531 C33.84127731 58.67201187 33.84127731 58.67201187 32.51443481 58.67514038 C29.65133513 58.67814629 26.78881238 58.65968041 23.92578125 58.640625 C21.93849327 58.6375676 19.95120315 58.63569133 17.96391296 58.63494873 C13.80194889 58.63034723 9.64017848 58.61592434 5.47827148 58.59375 C0.13127284 58.56541262 -5.21557359 58.55453288 -10.56264019 58.5500679 C-14.66400183 58.5459213 -18.7653324 58.5361111 -22.86667824 58.52419281 C-24.83914757 58.51847869 -26.81161991 58.51372379 -28.78409386 58.50992584 C-31.53279308 58.50308755 -34.28136908 58.48946829 -37.0300293 58.47363281 C-37.85236557 58.47251495 -38.67470184 58.47139709 -39.5219574 58.47024536 C-45.13531044 58.42718956 -45.13531044 58.42718956 -46.25 57.3125 C-46.54264356 53.20252496 -46.56431413 49.08845228 -46.60009766 44.96899414 C-46.61650966 43.58893802 -46.64360043 42.20896152 -46.68212891 40.8293457 C-46.97926208 30.12609209 -45.5573208 23.20141516 -39.25 14.578125 C-28.44609309 3.68981257 -14.96530856 -0.09644371 0 0 Z " fill="#FEFDFC" transform="translate(116.25,210.6875)"/>
<path d="M0 0 C0.92208252 0.00491455 1.84416504 0.0098291 2.79418945 0.01489258 C15.1268853 0.22638459 27.76213968 3.20546452 37.2421875 11.65625 C45.58590975 21.21770469 46.90845002 29.03259581 47 41.3125 C47.04350586 43.25769531 47.04350586 43.25769531 47.08789062 45.2421875 C47.09626953 46.48226562 47.10464844 47.72234375 47.11328125 49 C47.12786377 50.13824219 47.14244629 51.27648437 47.1574707 52.44921875 C46.6875 55.3125 46.6875 55.3125 45.19039917 56.96917725 C41.591846 58.90054484 38.15358515 58.71442401 34.17114258 58.66894531 C33.31385056 58.67098969 32.45655853 58.67303406 31.57328796 58.67514038 C28.74265138 58.67814608 25.91259848 58.65968113 23.08203125 58.640625 C21.11716354 58.63756756 19.15229366 58.63569133 17.18742371 58.63494873 C13.07253712 58.63034738 8.95784643 58.615925 4.84301758 58.59375 C-0.44344723 58.565412 -5.72975807 58.5545328 -11.01629162 58.5500679 C-15.07133029 58.54592128 -19.12633755 58.53611108 -23.18136024 58.52419281 C-25.13150085 58.51847878 -27.0816445 58.51372385 -29.03178978 58.50992584 C-31.7493566 58.50308744 -34.4667988 58.48946815 -37.18432617 58.47363281 C-37.99731171 58.47251495 -38.81029724 58.47139709 -39.6479187 58.47024536 C-45.19781031 58.42718969 -45.19781031 58.42718969 -46.3125 57.3125 C-46.58054225 53.02345423 -46.58391281 48.72830589 -46.60766602 44.43188477 C-46.62474025 42.28269592 -46.66858345 40.13510236 -46.71289062 37.98632812 C-46.825491 28.05342356 -45.64246603 21.3967584 -38.84765625 13.75 C-28.03474917 3.62493689 -14.45886995 -0.09145311 0 0 Z " fill="#FDFDFC" transform="translate(231.3125,210.6875)"/>
<path d="M0 0 C7.21128791 4.99345166 10.57721075 12.96010808 12.54801941 21.32640076 C13.02417374 24.14299483 13.14806857 26.78892419 13.17700195 29.64477539 C13.19625481 31.30658592 13.19625481 31.30658592 13.21589661 33.00196838 C13.22328354 34.18854538 13.23067047 35.37512238 13.23828125 36.59765625 C13.246353 37.82407333 13.25442474 39.05049042 13.26274109 40.31407166 C13.27655401 42.90378414 13.28728861 45.49351461 13.29516602 48.08325195 C13.31245117 52.05128959 13.35637206 56.01850933 13.40039062 59.98632812 C13.41051173 62.50259805 13.41902964 65.01887503 13.42578125 67.53515625 C13.44328934 68.72375748 13.46079742 69.9123587 13.47883606 71.13697815 C13.47591049 72.24169968 13.47298492 73.3464212 13.4699707 74.48461914 C13.47583694 75.45548965 13.48170319 76.42636017 13.48774719 77.426651 C12.85310477 80.77501765 11.68101057 81.95171467 9 84 C6.15349716 84.37307106 3.76714443 84.51645498 0.9375 84.4375 C0.21755859 84.44458984 -0.50238281 84.45167969 -1.24414062 84.45898438 C-6.44722036 84.39618026 -6.44722036 84.39618026 -8.70521545 82.77786255 C-10.40945767 80.43777561 -10.37207393 79.00216942 -10.36889648 76.12060547 C-10.37577988 75.12882294 -10.38266327 74.13704041 -10.38975525 73.11520386 C-10.38359695 72.04335846 -10.37743866 70.97151306 -10.37109375 69.8671875 C-10.38848655 67.59374857 -10.40607081 65.32031111 -10.42382812 63.046875 C-10.43387358 59.46579173 -10.43750469 55.88480767 -10.43579102 52.30371094 C-10.43937847 48.84540439 -10.4667989 45.38785796 -10.49609375 41.9296875 C-10.48791122 40.86998749 -10.4797287 39.81028748 -10.47129822 38.71847534 C-10.53721958 32.07943652 -11.45441186 26.71011522 -15 21 C-20.65123029 15.61787591 -24.9520667 15.65640126 -32.56640625 15.71875 C-37.12556156 16.09219617 -38.79558226 16.79558226 -42 20 C-45.34935315 24.61979745 -46.11743874 28.56328862 -46.15771484 34.17993164 C-46.17310806 35.72657249 -46.17310806 35.72657249 -46.18881226 37.30445862 C-46.19611359 38.41183884 -46.20341492 39.51921906 -46.2109375 40.66015625 C-46.23899122 43.00326237 -46.26765557 45.34636125 -46.296875 47.68945312 C-46.33824223 51.38517162 -46.37512958 55.0807526 -46.40136719 58.77661133 C-46.42887722 62.34224331 -46.47473166 65.90725943 -46.5234375 69.47265625 C-46.52669037 70.5820607 -46.52994324 71.69146515 -46.53329468 72.83448792 C-46.54986115 73.86242966 -46.56642761 74.8903714 -46.58349609 75.94946289 C-46.59158295 76.85451065 -46.5996698 77.75955841 -46.60800171 78.69203186 C-47 81 -47 81 -48.28189087 82.79075623 C-51.31230672 84.92363093 -54.93115305 84.42862207 -58.5 84.375 C-59.27214844 84.38660156 -60.04429687 84.39820313 -60.83984375 84.41015625 C-66.37039755 84.3814012 -66.37039755 84.3814012 -68.71987915 82.95812988 C-70.70652299 79.91927095 -70.41693554 76.78415683 -70.38818359 73.27148438 C-70.39344055 72.48582596 -70.39869751 71.70016754 -70.40411377 70.89070129 C-70.41732666 68.29151579 -70.40857134 65.69294182 -70.3984375 63.09375 C-70.40045787 61.28918337 -70.403369 59.48461754 -70.40713501 57.68005371 C-70.4115601 53.89713776 -70.40512139 50.11443424 -70.39111328 46.33154297 C-70.37402125 41.47893108 -70.38386144 36.62681694 -70.40183067 31.77422333 C-70.41266353 28.0476302 -70.40922447 24.32115537 -70.4014473 20.59455872 C-70.39944391 18.80515993 -70.40190942 17.01575045 -70.40888596 15.22636414 C-70.41649232 12.72679127 -70.40490821 10.22802808 -70.38818359 7.72851562 C-70.39425629 6.98660477 -70.40032898 6.24469391 -70.40658569 5.4803009 C-70.37064132 2.58530223 -70.32897293 0.50321166 -68.71987915 -1.95812988 C-65.60878764 -3.84277002 -62.02747283 -3.42800043 -58.5 -3.375 C-57.34177734 -3.39240234 -57.34177734 -3.39240234 -56.16015625 -3.41015625 C-50.50036239 -3.38072925 -50.50036239 -3.38072925 -48.29882812 -1.70556641 C-46.27853561 0.94739665 -46.30639899 3.75217076 -46 7 C-45.5875 6.54109375 -45.175 6.0821875 -44.75 5.609375 C-32.81581037 -7.07070148 -15.03826618 -8.89140323 0 0 Z " fill="#0EBCFE" transform="translate(627,80)"/>
<path d="M0 0 C0.87914062 0.00064453 1.75828125 0.00128906 2.6640625 0.00195312 C4.03691406 0.02612305 4.03691406 0.02612305 5.4375 0.05078125 C6.35273438 0.04755859 7.26796875 0.04433594 8.2109375 0.04101562 C15.03667092 0.09606186 15.03667092 0.09606186 18.4375 2.36328125 C18.74813643 5.28620198 18.86445169 8.00107592 18.85400391 10.92797852 C18.86258926 11.8142392 18.87117462 12.70049988 18.88002014 13.61361694 C18.90517935 16.55238681 18.90946751 19.4908196 18.9140625 22.4296875 C18.92836245 24.46468651 18.94411762 26.49967577 18.96127319 28.53465271 C19.00321572 33.8985704 19.02815456 39.26242771 19.04876709 44.62646484 C19.08452384 53.21698413 19.14540158 61.80735453 19.20725632 70.39771843 C19.22642086 73.40744359 19.23809838 76.41712897 19.24868774 79.42689514 C19.25889472 81.26059049 19.26925221 83.09428501 19.27978516 84.92797852 C19.28082748 85.77215836 19.28186981 86.6163382 19.28294373 87.48609924 C18.94917506 91.22964599 18.94917506 91.22964599 20.4375 94.36328125 C22.01726702 94.47037005 23.60170781 94.50950123 25.18505859 94.52099609 C26.70200821 94.53638931 26.70200821 94.53638931 28.24960327 94.55209351 C29.90108871 94.5630455 29.90108871 94.5630455 31.5859375 94.57421875 C33.89323629 94.60228516 36.20052786 94.63094961 38.5078125 94.66015625 C42.16406064 94.70146979 45.82017385 94.73833647 49.4765625 94.76464844 C52.99247426 94.79217582 56.50776353 94.83804856 60.0234375 94.88671875 C61.12037933 94.88997162 62.21732117 94.89322449 63.34750366 94.89657593 C64.87390976 94.92142563 64.87390976 94.92142563 66.43115234 94.94677734 C67.77564957 94.95890762 67.77564957 94.95890762 69.14730835 94.97128296 C71.88469531 95.43982497 72.77836913 96.17480474 74.4375 98.36328125 C74.80981445 100.32446289 74.80981445 100.32446289 74.80078125 102.5234375 C74.79981445 103.71356445 74.79981445 103.71356445 74.79882812 104.92773438 C74.78271484 105.75208984 74.76660156 106.57644531 74.75 107.42578125 C74.75322266 108.25400391 74.75644531 109.08222656 74.75976562 109.93554688 C74.70462592 116.09615533 74.70462592 116.09615533 72.4375 118.36328125 C69.94924713 118.56674151 67.57180025 118.64651801 65.08203125 118.63793945 C63.94524429 118.64560585 63.94524429 118.64560585 62.78549194 118.65342712 C60.27358158 118.66735838 57.76194446 118.66636391 55.25 118.6640625 C53.5088694 118.66794717 51.76773974 118.67228136 50.02661133 118.67704773 C46.374806 118.6845173 42.72309735 118.68421311 39.07128906 118.67895508 C34.38335606 118.67315595 29.69581756 118.69009842 25.00794983 118.71329975 C21.41180087 118.72800495 17.81574767 118.72891326 14.21957397 118.72579002 C12.49074522 118.72630474 10.7619113 118.73157058 9.03311157 118.74160194 C6.61946687 118.75388877 4.20660026 118.74722237 1.79296875 118.7355957 C1.07394379 118.74323944 0.35491882 118.75088318 -0.38589478 118.75875854 C-2.37426758 118.73750305 -2.37426758 118.73750305 -5.5625 118.36328125 C-7.68130822 115.18506892 -7.81408019 114.40887857 -7.82319641 110.77075195 C-7.83028122 109.82857819 -7.83736603 108.88640442 -7.84466553 107.91567993 C-7.84218811 106.88389618 -7.83971069 105.85211243 -7.8371582 104.7890625 C-7.84226913 103.7010434 -7.84738007 102.61302429 -7.85264587 101.49203491 C-7.86657471 97.88656147 -7.86558277 94.28127844 -7.86328125 90.67578125 C-7.86716603 88.17618742 -7.87150025 85.67659426 -7.87626648 83.17700195 C-7.88373554 77.93471651 -7.88356997 72.69248061 -7.87817383 67.45019531 C-7.87213034 61.38857662 -7.88445419 55.32718982 -7.9057439 49.26561069 C-7.9254683 43.43554692 -7.92853564 37.60557422 -7.92500877 31.77548218 C-7.92552344 29.29388891 -7.93078821 26.81229204 -7.94082069 24.33071899 C-7.95310884 20.86612896 -7.94643927 17.40208086 -7.93481445 13.9375 C-7.94245819 12.90571625 -7.95010193 11.8739325 -7.95797729 10.81088257 C-7.95096298 9.8687088 -7.94394867 8.92653503 -7.9367218 7.95581055 C-7.93688954 7.13654587 -7.93705729 6.31728119 -7.93723011 5.47319031 C-7.12154587 0.88049938 -4.2678562 -0.01584176 0 0 Z " fill="#0BBBFE" transform="translate(378.5625,44.63671875)"/>
<path d="M0 0 C-1.39210264 2.96404628 -3.03357647 5.52782057 -4.9375 8.1875 C-10.84320877 17.08216162 -12.04664167 25.35517843 -11 36 C-9.24442245 44.09864643 -5.27204816 49.76703666 0 56 C0.99 57.485 0.99 57.485 2 59 C-0.13962808 60.13829431 -2.28558999 61.26034158 -4.4375 62.375 C-5.02982422 62.69210938 -5.62214844 63.00921875 -6.23242188 63.3359375 C-13.47222521 67.05262798 -20.10337453 68.25150952 -28.19384766 67.71875 C-38.3675421 67.08127551 -44.42038766 68.78579192 -52.4453125 75.03125 C-55 77 -55 77 -57 77 C-58.0195624 73.84497619 -58.03414286 70.91337334 -58.03662109 67.61938477 C-58.14612133 58.91618197 -60.09586466 54.11167031 -65.0546875 46.88671875 C-69.81618826 39.82095758 -71.04769722 32.41729471 -70 24 C-67.31383372 13.33528031 -60.69012373 5.45980309 -51.625 -0.49609375 C-35.64418808 -9.65176725 -15.70991266 -10.02332636 0 0 Z " fill="#FDFDFC" transform="translate(171,68)"/>
<path d="M0 0 C0.84175781 -0.00257813 1.68351563 -0.00515625 2.55078125 -0.0078125 C3.87142578 0.00378906 3.87142578 0.00378906 5.21875 0.015625 C6.09917969 0.00789062 6.97960937 0.00015625 7.88671875 -0.0078125 C8.72847656 -0.00523437 9.57023438 -0.00265625 10.4375 0 C11.59668945 0.00338379 11.59668945 0.00338379 12.77929688 0.00683594 C14.71875 0.265625 14.71875 0.265625 16.71875 2.265625 C17.02172852 4.40454102 17.02172852 4.40454102 17.09765625 7.01953125 C17.13181641 7.95603516 17.16597656 8.89253906 17.20117188 9.85742188 C17.22759766 10.83775391 17.25402344 11.81808594 17.28125 12.828125 C17.34092902 14.76705838 17.40451609 16.70587678 17.47265625 18.64453125 C17.49658447 19.5063501 17.5205127 20.36816895 17.54516602 21.25610352 C17.50132832 23.2627465 17.50132832 23.2627465 18.71875 24.265625 C22.0851478 24.50285438 25.44427761 24.66171167 28.81640625 24.78320312 C32.58621432 24.96517018 34.51239292 25.12805361 37.71875 27.265625 C38.08203125 30.453125 38.08203125 30.453125 38.03125 34.265625 C38.02738281 35.52375 38.02351562 36.781875 38.01953125 38.078125 C37.71875 41.265625 37.71875 41.265625 35.71875 43.265625 C32.84178271 43.54665806 30.03945239 43.73162598 27.15625 43.828125 C22.03068734 43.55868264 22.03068734 43.55868264 17.71875 45.265625 C17.6156465 46.62561928 17.5802612 47.99085625 17.57348633 49.35473633 C17.56710648 50.22266312 17.56072662 51.0905899 17.55415344 51.9848175 C17.55304062 52.92955429 17.5519278 53.87429108 17.55078125 54.84765625 C17.54745285 55.81338058 17.54412445 56.77910492 17.54069519 57.77409363 C17.53562073 59.82277956 17.53328702 61.8714738 17.53344727 63.92016602 C17.53126655 67.05433846 17.51313224 70.18815581 17.49414062 73.32226562 C17.49120567 75.30989463 17.48922156 77.2975253 17.48828125 79.28515625 C17.48109573 80.22382034 17.47391022 81.16248444 17.46650696 82.1295929 C17.4711219 83.4456678 17.4711219 83.4456678 17.47583008 84.78833008 C17.47440506 85.5580867 17.47298004 86.32784332 17.47151184 87.1209259 C17.75465292 89.57706946 18.4156984 91.17256937 19.71875 93.265625 C23.36909227 95.09079613 27.72234115 94.67731613 31.75 94.88671875 C34.71875 95.265625 34.71875 95.265625 36.71875 97.265625 C37.01953125 100.453125 37.01953125 100.453125 37.03125 104.265625 C37.04800781 105.52375 37.06476562 106.781875 37.08203125 108.078125 C36.96214844 109.13 36.84226562 110.181875 36.71875 111.265625 C29.84411492 115.84871506 17.20980195 114.12770049 9.3203125 112.61328125 C3.64227991 110.57792495 -0.10423239 107.35329444 -3.28125 102.265625 C-6.3786117 95.5259417 -6.74733801 88.99013912 -6.79296875 81.66796875 C-6.81091995 80.59309708 -6.82887115 79.5182254 -6.84736633 78.41078186 C-6.90115532 75.0082684 -6.93526436 71.60589268 -6.96875 68.203125 C-7.00195076 65.8834445 -7.03644294 63.56378211 -7.07226562 61.24414062 C-7.15686347 55.58475904 -7.22534511 49.92535891 -7.28125 44.265625 C-8.05210937 44.21664062 -8.82296875 44.16765625 -9.6171875 44.1171875 C-10.62007812 44.04242188 -11.62296875 43.96765625 -12.65625 43.890625 C-14.15285156 43.78621094 -14.15285156 43.78621094 -15.6796875 43.6796875 C-18.28125 43.265625 -18.28125 43.265625 -20.28125 41.265625 C-20.546875 38.078125 -20.546875 38.078125 -20.53125 34.265625 C-20.53640625 33.0075 -20.5415625 31.749375 -20.546875 30.453125 C-20.28125 27.265625 -20.28125 27.265625 -18.28125 25.265625 C-15.93359375 24.88671875 -15.93359375 24.88671875 -13.21875 24.703125 C-9.94285436 24.72580547 -9.94285436 24.72580547 -7.28125 23.265625 C-7.14849795 21.72880065 -7.07796826 20.18648433 -7.03515625 18.64453125 C-7.00228516 17.70931641 -6.96941406 16.77410156 -6.93554688 15.81054688 C-6.87447266 13.82628469 -6.81716545 11.84190289 -6.76367188 9.85742188 C-6.72951172 8.92091797 -6.69535156 7.98441406 -6.66015625 7.01953125 C-6.6351001 6.15658447 -6.61004395 5.2936377 -6.58422852 4.40454102 C-5.98996996 0.20929585 -3.7030481 0.01080956 0 0 Z " fill="#0BBAFE" transform="translate(613.28125,199.734375)"/>
<path d="M0 0 C6.42335228 4.30615795 10.65080903 9.59517686 13 17 C14.22440771 24.58482649 12.81797952 31.36102077 9 38 C4.66039747 44.00868042 -0.865626 47.1950461 -8 49 C-16.74626691 50.30120842 -23.03135329 47.59488439 -30.25 42.875 C-36.16159671 36.69469435 -38.31505897 30.94157923 -38.5625 22.375 C-38.22578405 13.79306021 -36.43692039 9.06994596 -30.25 3.1875 C-21.4676175 -3.9097021 -10.10481045 -5.69285096 0 0 Z " fill="#FDFDFC" transform="translate(130,156)"/>
<path d="M0 0 C5.75260832 4.9942607 9.52101606 10.59227141 10.34765625 18.19921875 C10.7283592 27.2287119 9.36537302 33.89803798 3.42578125 40.83984375 C-2.02299649 46.03459922 -8.52037081 48.05822741 -15.9375 48.5 C-23.61975647 48.21370473 -29.73951036 44.72401417 -34.9375 39.1875 C-39.93654817 32.86794855 -41.68115119 26.86389253 -41.40234375 18.80078125 C-40.20472944 10.46399037 -35.57127226 4.76494424 -29.18359375 -0.4375 C-20.66162287 -6.53551136 -8.68216709 -5.28029583 0 0 Z " fill="#FDFDFC" transform="translate(247,157)"/>
<path d="M0 0 C5.53874494 2.78779402 8.54895013 7.88105945 10.51171875 13.5546875 C12.82407781 22.62748521 12.59213043 31.77190608 8.76171875 40.38671875 C5.79415496 45.30492416 2.35246908 48.276587 -3.16796875 49.9453125 C-8.56820257 51.09668311 -12.49998549 51.1222451 -17.42578125 48.38671875 C-22.72342388 44.72633969 -25.89284677 39.6413831 -27.23828125 33.38671875 C-28.18991843 23.3234567 -28.79761917 12.69283688 -22.23828125 4.38671875 C-16.00453742 -1.5570835 -8.29665492 -2.27325449 0 0 Z " fill="#FCFDFC" transform="translate(704.23828125,93.61328125)"/>
<path d="M0 0 C1.69669132 1.69669132 1.21209414 3.80642509 1.25 6.125 C1.17637809 11.80861113 0.69695294 16.16706624 -3.39453125 20.46484375 C-8.14075409 24.61027889 -11.66272276 26.28876188 -17.9375 26.3125 C-18.95714844 26.32925781 -19.97679687 26.34601563 -21.02734375 26.36328125 C-25.21153978 25.8519406 -27.81668174 24.14251418 -30.8125 21.25 C-32.57098729 17.91812934 -32.51262487 15.71653027 -32 12 C-28.73652298 6.05580971 -24.48867773 4.68877174 -18.140625 2.8125 C-6.13103717 -0.29445805 -6.13103717 -0.29445805 0 0 Z " fill="#FBFCFC" transform="translate(520,122)"/>
<path d="M0 0 C0.0814222 2.22855574 0.13938079 4.45797655 0.1875 6.6875 C0.23970703 8.54955078 0.23970703 8.54955078 0.29296875 10.44921875 C-0.08906993 15.07952757 -1.52170681 17.48138972 -4.71875 20.765625 C-5.60046875 21.50039063 -5.60046875 21.50039063 -6.5 22.25 C-7.0878125 22.75015625 -7.675625 23.2503125 -8.28125 23.765625 C-12.8233998 27.0277144 -18.66886055 26.5635776 -24 26 C-27.91075925 24.01031547 -29.57689098 22.63466354 -32 19 C-32.78580272 12.04003302 -32.78580272 12.04003302 -29.875 8.1875 C-24.24724844 3.90551512 -18.60567947 2.20450071 -11.8125 0.75 C-10.60303711 0.4715625 -10.60303711 0.4715625 -9.36914062 0.1875 C-8.20608398 -0.06773437 -8.20608398 -0.06773437 -7.01953125 -0.328125 C-6.31932861 -0.4818457 -5.61912598 -0.63556641 -4.89770508 -0.79394531 C-3 -1 -3 -1 0 0 Z " fill="#FBFCFC" transform="translate(560,271)"/>
<path d="M0 0 C3.73971447 2.17266813 5.81156145 4.3703232 7.625 8.375 C7.625 11.345 7.625 14.315 7.625 17.375 C-3.595 17.375 -14.815 17.375 -26.375 17.375 C-26.375 11.23120023 -25.90069469 8.2253201 -22.375 3.375 C-15.98596536 -2.73433036 -7.98017419 -3.51542989 0 0 Z " fill="#FBFDFD" transform="translate(711.375,241.625)"/>
<path d="M0 0 C0.66 0 1.32 0 2 0 C2.04633108 7.38003676 2.08187308 14.76004218 2.10362434 22.14019489 C2.11406363 25.56706693 2.12822532 28.9938395 2.15087891 32.4206543 C2.17675686 36.35985119 2.18647162 40.29900774 2.1953125 44.23828125 C2.20563507 45.46960281 2.21595764 46.70092438 2.22659302 47.96955872 C2.22674408 49.11051498 2.22689514 50.25147125 2.22705078 51.42700195 C2.231492 52.432939 2.23593323 53.43887604 2.24050903 54.47529602 C2 57 2 57 0 60 C-0.66 59.67 -1.32 59.34 -2 59 C-1.75885216 57.93341911 -1.75885216 57.93341911 -1.51283264 56.84529114 C-1.00005894 54.000327 -0.84202558 51.3635603 -0.79467773 48.4753418 C-0.77473251 47.39459885 -0.75478729 46.3138559 -0.73423767 45.20036316 C-0.71752518 44.0449855 -0.70081268 42.88960785 -0.68359375 41.69921875 C-0.66281265 40.50770706 -0.64203156 39.31619537 -0.62062073 38.08857727 C-0.55531821 34.28827597 -0.49632982 30.48790648 -0.4375 26.6875 C-0.39429644 24.10871695 -0.35068156 21.52994076 -0.30664062 18.95117188 C-0.19965655 12.63418634 -0.09785445 6.3171332 0 0 Z " fill="#01B1FE" transform="translate(541,103)"/>
<path d="M0 0 C3 0 3 0 4.76953125 1.7265625 C5.50558594 2.47679687 6.24164063 3.22703125 7 4 C9.21060734 5.51411462 11.41490897 6.96245686 13.6875 8.375 C14.95346981 9.17523602 16.21909566 9.97601646 17.484375 10.77734375 C18.09345703 11.16132324 18.70253906 11.54530273 19.33007812 11.94091797 C21.38549033 13.24448203 23.41535389 14.58297083 25.4375 15.9375 C26.12457031 16.39769531 26.81164062 16.85789062 27.51953125 17.33203125 C28.92140881 18.27471112 30.32309129 19.21768173 31.72412109 20.16162109 C33.68966619 21.48486399 35.65730554 22.80495592 37.625 24.125 C38.24689209 24.54515381 38.86878418 24.96530762 39.50952148 25.39819336 C43.57825708 28.12524384 47.7221064 30.6136172 52 33 C52 33.66 52 34.32 52 35 C53.2065625 35.433125 53.2065625 35.433125 54.4375 35.875 C57 37 57 37 58 39 C54.55446418 37.71955863 51.59776281 36.23494759 48.53613281 34.20605469 C47.68464661 33.64497009 46.8331604 33.0838855 45.95587158 32.50579834 C45.04746521 31.90060364 44.13905884 31.29540894 43.203125 30.671875 C42.25491882 30.04524963 41.30671265 29.41862427 40.32977295 28.77301025 C37.30036018 26.76956541 34.27515356 24.75986889 31.25 22.75 C29.22943863 21.41234952 27.2086081 20.07510551 25.1875 18.73828125 C15.84705941 12.55687338 15.84705941 12.55687338 11.47814941 9.64050293 C9.78010195 8.51641742 8.07240747 7.40680858 6.35681152 6.30969238 C5.53104614 5.77726929 4.70528076 5.24484619 3.85449219 4.69628906 C3.11237488 4.22451233 2.37025757 3.7527356 1.60565186 3.2666626 C1.07578674 2.84866394 0.54592163 2.43066528 0 2 C0 1.34 0 0.68 0 0 Z " fill="#07B1FE" transform="translate(180,286)"/>
<path d="M0 0 C0 3 0 3 -1.46801758 6.20727539 C-3.18334818 10.05528478 -3.42680344 13.45481124 -3.51171875 17.68359375 C-3.53864555 18.73414696 -3.53864555 18.73414696 -3.56611633 19.80592346 C-3.61977555 22.01638989 -3.65396932 24.22664612 -3.6875 26.4375 C-3.72071257 27.94729461 -3.75520581 29.45706163 -3.79101562 30.96679688 C-3.87547395 34.64432933 -3.9424955 38.32193591 -4 42 C-4.33 42 -4.66 42 -5 42 C-7.00065854 8.16743497 -7.00065854 8.16743497 0 0 Z " fill="#03B1FE" transform="translate(189,227)"/>
<path d="M0 0 C0.66 0.33 1.32 0.66 2 1 C1.236875 1.70125 0.47375 2.4025 -0.3125 3.125 C-4.89233182 8.02435497 -6.33775933 12.37759331 -7 19 C-7.33 19 -7.66 19 -8 19 C-8.4474152 11.54308006 -7.19095758 7.28643637 -3 1 C-2.01 0.67 -1.02 0.34 0 0 Z " fill="#08B0FE" transform="translate(692,241)"/>
<path d="M0 0 C-0.87011719 0.41958984 -0.87011719 0.41958984 -1.7578125 0.84765625 C-7.43203296 3.75967368 -11.22466839 6.86258797 -15 12 C-15.33 11.34 -15.66 10.68 -16 10 C-14.30960021 4.92880064 -9.88926192 1.98756873 -5.25 -0.4375 C-3 -1 -3 -1 0 0 Z " fill="#06B0FE" transform="translate(110,154)"/>
<path d="M0 0 C0.66 0.33 1.32 0.66 2 1 C2 5.62 2 10.24 2 15 C1.34 14.67 0.68 14.34 0 14 C-0.44921875 11.09375 -0.44921875 11.09375 -0.6875 7.5 C-0.77386719 6.3140625 -0.86023438 5.128125 -0.94921875 3.90625 C-0.96597656 2.9471875 -0.98273437 1.988125 -1 1 C-0.67 0.67 -0.34 0.34 0 0 Z " fill="#37C2FE" transform="translate(649,226)"/>
<path d="M0 0 C-7.5 5 -7.5 5 -11 5 C-10 2 -10 2 -7.75 0.8125 C-5.00208853 0.00061706 -2.84552111 -0.16260121 0 0 Z " fill="#05B0FE" transform="translate(683,76)"/>
<path d="M0 0 C2.25 -0.3125 2.25 -0.3125 5 0 C7.3125 2.5 7.3125 2.5 9 5 C8.67 5.66 8.34 6.32 8 7 C6.66382648 6.02471263 5.3311249 5.04466681 4 4.0625 C3.2575 3.51722656 2.515 2.97195312 1.75 2.41015625 C1.1725 1.94480469 0.595 1.47945313 0 1 C0 0.67 0 0.34 0 0 Z " fill="#05B1FE" transform="translate(703,93)"/>
</svg>